<svg width="29" height="29" xmlns="http://www.w3.org/2000/svg" xmlns:xlink="http://www.w3.org/1999/xlink" xmlns:svgjs="http://svgjs.com/svgjs" viewBox="0.013 0 28.974 29" fill="#fff"><svg xmlns="http://www.w3.org/2000/svg" width="29" height="29" viewBox="1 1.974 28 28.026"><path paint-order="stroke fill markers" fill-rule="evenodd" d="M7.555 14.431c3.297-4.73 4.467-6.078 4.272-8.816-.195-2.737.363-3.49 1.69-3.626 1.329-.134 3.824.572 4.262 5.053.19 1.938-1.232 5.756-1.232 5.756l9.943.006c1.408 0 2.51.587 2.51 2.458 0 1.753-1.988 2.28-1.988 2.28s1.272.484 1.272 1.958c0 1.493-1.324 2.166-2.196 2.166.543.263 1.3.768 1.134 2.045-.167 1.276-1.101 1.74-2.024 2.016.597.358 1.03 1.35.699 2.114-.447 1.027-1.626 2.16-4.272 2.16H9.264c-.937 0-1.633-.418-1.78-.931V15s0-.452.071-.57zm-5.774-.9h4.844V30H1.781V13.531zm-.781 0h4.844V30H1V13.531z"/></svg></svg>